<svg id="Icon_ionic-ios-checkbox-outline" data-name="Icon ionic-ios-checkbox-outline" xmlns="http://www.w3.org/2000/svg" width="46.687" height="46.683" viewBox="0 0 46.687 46.683">
  <path id="Path_424" data-name="Path 424" d="M85.313,690.353h-38.9a3.886,3.886,0,0,0-3.889,3.881v38.913a3.885,3.885,0,0,0,3.885,3.889H85.313a3.888,3.888,0,0,0,3.893-3.881V694.242a3.885,3.885,0,0,0-3.885-3.889Zm.487,42.306a.972.972,0,0,1-.97.974H46.9a.969.969,0,0,1-.97-.97V694.729a.978.978,0,0,1,.97-.974H84.83a.981.981,0,0,1,.974.974Z" transform="translate(-42.52 -690.353)" fill="#030504"/>
  <path id="Path_425" data-name="Path 425" d="M71.059,695.9l-2.14-2.2a.465.465,0,0,0-.346-.142h0a.431.431,0,0,0-.346.142L53.4,708.64l-5.388-5.4a.469.469,0,0,0-.666-.017l-.017.017-2.165,2.165a.481.481,0,0,0-.008.683l.008.008,6.812,6.808a2.143,2.143,0,0,0,1.424.691,2.222,2.222,0,0,0,1.407-.67h.012l16.256-16.339A.521.521,0,0,0,71.059,695.9Z" transform="translate(-34.633 -680.229)" fill="#030504"/>
</svg>
