<svg id="Component_3_1" data-name="Component 3 – 1" xmlns="http://www.w3.org/2000/svg" width="425.445" height="301.357" viewBox="0 0 425.445 301.357">
  <path id="Union_4" data-name="Union 4" d="M145.124,0H0V235.4H290.249V0Z" transform="translate(135.197)" fill="#172e71"/>
  <path id="Union_5" data-name="Union 5" d="M123.738,125.878a17.606,17.606,0,1,1,17.606,17.606A17.6,17.6,0,0,1,123.738,125.878Zm-61.869,0a17.606,17.606,0,1,1,17.606,17.606A17.6,17.6,0,0,1,61.869,125.878ZM0,125.878a17.606,17.606,0,1,1,17.606,17.606A17.6,17.6,0,0,1,0,125.878ZM123.738,74.461a17.606,17.606,0,1,1,17.606,17.606A17.607,17.607,0,0,1,123.738,74.461Zm-61.869,0A17.606,17.606,0,1,1,79.475,92.067,17.607,17.607,0,0,1,61.869,74.461Zm61.869-56.855a17.606,17.606,0,1,1,17.606,17.606A17.6,17.6,0,0,1,123.738,17.606Z" transform="translate(0 157.873)" fill="#ffe000"/>
</svg>
