<svg id="Component_5_1" data-name="Component 5 – 1" xmlns="http://www.w3.org/2000/svg" width="231.238" height="65.688" viewBox="0 0 231.238 65.688">
  <path id="Union_9" data-name="Union 9" d="M202.434,51.286a14.4,14.4,0,1,1,14.4,14.4A14.4,14.4,0,0,1,202.434,51.286Zm-50.608,0a14.4,14.4,0,1,1,14.4,14.4A14.4,14.4,0,0,1,151.826,51.286Zm-50.611,0a14.4,14.4,0,1,1,14.4,14.4A14.4,14.4,0,0,1,101.215,51.286Zm-50.607,0a14.4,14.4,0,1,1,14.4,14.4A14.4,14.4,0,0,1,50.607,51.286ZM0,51.286a14.4,14.4,0,1,1,14.4,14.4A14.4,14.4,0,0,1,0,51.286ZM202.434,14.4a14.4,14.4,0,1,1,14.4,14.4A14.4,14.4,0,0,1,202.434,14.4Zm-50.608,0a14.4,14.4,0,1,1,14.4,14.4A14.4,14.4,0,0,1,151.826,14.4Zm-50.611,0a14.4,14.4,0,1,1,14.4,14.4A14.4,14.4,0,0,1,101.215,14.4Zm-50.607,0a14.4,14.4,0,1,1,14.4,14.4A14.4,14.4,0,0,1,50.607,14.4ZM0,14.4A14.4,14.4,0,1,1,14.4,28.8,14.4,14.4,0,0,1,0,14.4Z" fill="#ffe000"/>
</svg>
