<svg xmlns="http://www.w3.org/2000/svg" width="84.147" height="70.313" viewBox="0 0 84.147 70.313">
  <g id="Batch_SVG" data-name="Batch SVG" transform="translate(3047.688 349.508)">
    <path id="Path_2588" data-name="Path 2588" d="M-2673.84,293.458c-1.917.013-3.831-.05-5.74-.207a37.64,37.64,0,0,1-8.028-1.395,12.267,12.267,0,0,1-2.244-.9,1.438,1.438,0,0,1-.841-1.327c0-2.327-.021-4.654.008-6.98a11.892,11.892,0,0,1,3.335-8.09,17.113,17.113,0,0,1,9.927-5.232,19.652,19.652,0,0,1,12.083,1.594c.571.27,1.115.583,1.652.906.163.1.133.15.021.263a17.635,17.635,0,0,0-4.7,8.35,16.516,16.516,0,0,0-.248,6.43,16.935,16.935,0,0,0,2.144,5.994c.1.169.091.221-.131.244A68.553,68.553,0,0,1-2673.84,293.458Z" transform="translate(-331.74 -578.769)" fill="#fff"/>
    <path id="Path_2589" data-name="Path 2589" d="M-3033.41,290.6a55.918,55.918,0,0,1-6.287-.341,26.2,26.2,0,0,1-5.79-1.249,7.17,7.17,0,0,1-1.461-.666,1.413,1.413,0,0,1-.718-1.223c-.008-2.094-.057-4.19.012-6.282a10.745,10.745,0,0,1,3.792-7.776,14.524,14.524,0,0,1,7.95-3.671,15.689,15.689,0,0,1,13.149,3.768c.434.385.42.389.083.835a14.969,14.969,0,0,0-2.951,6.842,14.929,14.929,0,0,0-.16,2.278c0,2.271,0,4.541.008,6.812,0,.142-.055.174-.189.193A55.238,55.238,0,0,1-3033.41,290.6Z" transform="translate(0 -578.96)" fill="#fff"/>
    <path id="Path_2590" data-name="Path 2590" d="M-2585.317-21.841c-5.568,0-10.109-4.133-10.1-9.181.01-5.067,4.547-9.167,10.113-9.164,5.592,0,10.176,4.19,10.079,9.333C-2575.316-25.979-2579.668-21.871-2585.317-21.841Z" transform="translate(-420.286 -289.447)" fill="#fff"/>
    <path id="Path_2591" data-name="Path 2591" d="M-2333.691,284.3c0-8.43,7.572-15.3,16.849-15.294,9.253.008,16.8,6.867,16.8,15.278.005,8.47-7.549,15.3-16.906,15.294C-2326.148,299.568-2333.691,292.685-2333.691,284.3Zm30.3.014c-.031-6.887-6.1-12.223-13.425-12.247-7.427-.024-13.468,5.405-13.5,12.164-.035,6.785,5.932,12.258,13.411,12.3C-2309.479,296.569-2303.424,291.1-2303.392,284.313Z" transform="translate(-663.501 -578.772)" fill="#fff"/>
    <path id="Path_2592" data-name="Path 2592" d="M-2966.838.35c-5.091.009-9.265-3.786-9.259-8.418s4.124-8.374,9.244-8.4c5.085-.03,9.252,3.751,9.264,8.4S-2961.72.341-2966.838.35Z" transform="translate(-66.528 -311.638)" fill="#fff"/>
    <path id="Path_2593" data-name="Path 2593" d="M-2181.64-16.478a9.082,9.082,0,0,1,8.989,6.747A8.249,8.249,0,0,1-2177.944-.4a.532.532,0,0,1-.375.024,21.723,21.723,0,0,0-6.493-.809,14.649,14.649,0,0,0-1.661.125.736.736,0,0,1-.541-.115,8.2,8.2,0,0,1-3.891-5.822c-.637-4.278,2.469-8.3,7.113-9.268A11.753,11.753,0,0,1-2181.64-16.478Z" transform="translate(-796.112 -311.632)" fill="#fff"/>
    <path id="Path_2594" data-name="Path 2594" d="M-2753.467-334.227c-4.653,0-8.412-3.423-8.406-7.65s3.77-7.632,8.426-7.631c4.629,0,8.388,3.421,8.393,7.638S-2748.815-334.224-2753.467-334.227Z" transform="translate(-265.601)" fill="#fff"/>
    <path id="Path_2595" data-name="Path 2595" d="M-2377.487-334.227c-4.646,0-8.4-3.4-8.411-7.619s3.751-7.662,8.393-7.662c4.663,0,8.427,3.419,8.427,7.656C-2369.079-337.646-2372.849-334.227-2377.487-334.227Z" transform="translate(-614.986)" fill="#fff"/>
    <path id="Path_2596" data-name="Path 2596" d="M-2747.931-86.109c-7.993,4.3-9.059,14.288-1.986,19.877-.036.072-.121.081-.187.108a19.938,19.938,0,0,0-5.346,3.235c-.174.147-.248.128-.4-.017a17.556,17.556,0,0,0-4.626-3.132c-.055-.026-.108-.053-.166-.081,3.2-2.724,4.748-6.043,4.211-10.033s-2.91-6.853-6.705-8.808A14.364,14.364,0,0,1-2747.931-86.109Z" transform="translate(-264.427 -244.932)" fill="#fff"/>
    <path id="Path_2597" data-name="Path 2597" d="M-2356.887-86.124a14.36,14.36,0,0,1,15.2,1.159c-.3.159-.6.307-.881.474a11.2,11.2,0,0,0-5.728,7.633,10.481,10.481,0,0,0,3.092,9.8c.168.172.143.207-.078.279a20.306,20.306,0,0,0-5.364,2.652c-.088.061-.155.143-.293.048a20.911,20.911,0,0,0-4-2.136c3.389-2.8,5.075-6.249,4.666-10.408S-2353.023-83.913-2356.887-86.124Z" transform="translate(-641.945 -244.92)" fill="#fff"/>
    <path id="Path_2598" data-name="Path 2598" d="M-2220.131,410.753c-.051-.031-.1-.06-.153-.094q-3.813-2.595-7.628-5.188c-.152-.1-.178-.165-.052-.315q.885-1.048,1.739-2.119c.108-.135.171-.126.306-.033,1.69,1.159,3.386,2.309,5.073,3.472.178.123.261.106.4-.039q2.266-2.416,4.544-4.822,2.11-2.238,4.215-4.479c.105-.113.167-.116.289-.02.753.594,1.509,1.185,2.274,1.766.152.116.073.177-.01.265l-2.687,2.849-5.93,6.28-2.241,2.371C-2220.034,410.687-2220.06,410.744-2220.131,410.753Z" transform="translate(-761.675 -698.587)" fill="#fff"/>
  </g>
</svg>
